name rise44.8762peak52.3436fall86.788.mot
datacolumns 19
datarows 33
range 0.38833900000000 0.44166200000000
endheader
time	ground_force1_vx	ground_force1_vy	ground_force1_vz	ground_force1_px	ground_force1_py	ground_force1_pz	ground_force2_vx	ground_force2_vy	ground_force2_vz	ground_force2_px	ground_force2_py	ground_force2_pz	ground_torque1_x	ground_torque1_y	ground_torque1_z	ground_torque2_x	ground_torque2_y	ground_torque2_z	
0.38833900000000	2.51336900000000	688.25578900000005	38.98730000000000	0.18089400000000	0.00000000000000	0.09734700000000	0.00000000000000	0.00000000000000	0.00000000000000	0.00000000000000	0.00000000000000	0.00000000000000	0.00000000000000	14.00127000000000	0.00000000000000	0.00000000000000	0.00000000000000	0.00000000000000	
0.39000000000000	2.06997800000000	689.47792100000004	39.08112100000000	0.18013300000000	0.00000000000000	0.09741900000000	0.00000000000000	0.00000000000000	0.00000000000000	0.00000000000000	0.00000000000000	0.00000000000000	0.00000000000000	14.10263700000000	0.00000000000000	0.00000000000000	0.00000000000000	0.00000000000000	
0.39166800000000	1.62127600000000	690.75713299999995	39.18071200000000	0.17936000000000	0.00000000000000	0.09749500000000	0.00000000000000	0.00000000000000	0.00000000000000	0.00000000000000	0.00000000000000	0.00000000000000	0.00000000000000	14.20797100000000	0.00000000000000	0.00000000000000	0.00000000000000	0.00000000000000	
0.39333500000000	1.16693600000000	692.09111900000005	39.28579200000000	0.17857400000000	0.00000000000000	0.09757400000000	0.00000000000000	0.00000000000000	0.00000000000000	0.00000000000000	0.00000000000000	0.00000000000000	0.00000000000000	14.31714800000000	0.00000000000000	0.00000000000000	0.00000000000000	0.00000000000000	
0.39499400000000	0.70665300000000	693.47761900000000	39.39608800000000	0.17777400000000	0.00000000000000	0.09765600000000	0.00000000000000	0.00000000000000	0.00000000000000	0.00000000000000	0.00000000000000	0.00000000000000	0.00000000000000	14.43004100000000	0.00000000000000	0.00000000000000	0.00000000000000	0.00000000000000	
0.39666200000000	0.24015300000000	694.91443300000003	39.51133700000000	0.17696100000000	0.00000000000000	0.09774100000000	0.00000000000000	0.00000000000000	0.00000000000000	0.00000000000000	0.00000000000000	0.00000000000000	0.00000000000000	14.54652300000000	0.00000000000000	0.00000000000000	0.00000000000000	0.00000000000000	
0.39832600000000	-0.23281200000000	696.39942699999995	39.63128900000000	0.17613500000000	0.00000000000000	0.09782900000000	0.00000000000000	0.00000000000000	0.00000000000000	0.00000000000000	0.00000000000000	0.00000000000000	0.00000000000000	14.66646300000000	0.00000000000000	0.00000000000000	0.00000000000000	0.00000000000000	
0.40000100000000	-0.71245900000000	697.93053799999996	39.75570800000000	0.17529500000000	0.00000000000000	0.09792000000000	0.00000000000000	0.00000000000000	0.00000000000000	0.00000000000000	0.00000000000000	0.00000000000000	0.00000000000000	14.78972900000000	0.00000000000000	0.00000000000000	0.00000000000000	0.00000000000000	
0.40166200000000	-1.19897300000000	699.50578199999995	39.88436900000000	0.17444200000000	0.00000000000000	0.09801300000000	0.00000000000000	0.00000000000000	0.00000000000000	0.00000000000000	0.00000000000000	0.00000000000000	0.00000000000000	14.91618400000000	0.00000000000000	0.00000000000000	0.00000000000000	0.00000000000000	
0.40333000000000	-1.69250800000000	701.12325799999996	40.01706500000000	0.17357700000000	0.00000000000000	0.09810900000000	0.00000000000000	0.00000000000000	0.00000000000000	0.00000000000000	0.00000000000000	0.00000000000000	0.00000000000000	15.04569200000000	0.00000000000000	0.00000000000000	0.00000000000000	0.00000000000000	
0.40499300000000	-2.19318200000000	702.78115200000002	40.15360200000000	0.17269900000000	0.00000000000000	0.09820700000000	0.00000000000000	0.00000000000000	0.00000000000000	0.00000000000000	0.00000000000000	0.00000000000000	0.00000000000000	15.17811100000000	0.00000000000000	0.00000000000000	0.00000000000000	0.00000000000000	
0.40666200000000	-2.70108100000000	704.47774300000003	40.29380400000000	0.17180900000000	0.00000000000000	0.09830700000000	0.00000000000000	0.00000000000000	0.00000000000000	0.00000000000000	0.00000000000000	0.00000000000000	0.00000000000000	15.31330100000000	0.00000000000000	0.00000000000000	0.00000000000000	0.00000000000000	
0.40833000000000	-3.21625400000000	706.21140200000002	40.43751400000000	0.17090800000000	0.00000000000000	0.09840900000000	0.00000000000000	0.00000000000000	0.00000000000000	0.00000000000000	0.00000000000000	0.00000000000000	0.00000000000000	15.45111300000000	0.00000000000000	0.00000000000000	0.00000000000000	0.00000000000000	
0.40999900000000	-3.73871700000000	707.98059799999999	40.58458900000000	0.16999600000000	0.00000000000000	0.09851300000000	0.00000000000000	0.00000000000000	0.00000000000000	0.00000000000000	0.00000000000000	0.00000000000000	0.00000000000000	15.59140200000000	0.00000000000000	0.00000000000000	0.00000000000000	0.00000000000000	
0.41166800000000	-4.26844800000000	709.78389300000003	40.73490900000000	0.16907300000000	0.00000000000000	0.09861700000000	0.00000000000000	0.00000000000000	0.00000000000000	0.00000000000000	0.00000000000000	0.00000000000000	0.00000000000000	15.73401500000000	0.00000000000000	0.00000000000000	0.00000000000000	0.00000000000000	
0.41332800000000	-4.80538800000000	711.61994800000002	40.88837000000000	0.16814100000000	0.00000000000000	0.09872400000000	0.00000000000000	0.00000000000000	0.00000000000000	0.00000000000000	0.00000000000000	0.00000000000000	0.00000000000000	15.87879800000000	0.00000000000000	0.00000000000000	0.00000000000000	0.00000000000000	
0.41499600000000	-5.34944400000000	713.48751900000002	41.04488900000000	0.16719900000000	0.00000000000000	0.09883100000000	0.00000000000000	0.00000000000000	0.00000000000000	0.00000000000000	0.00000000000000	0.00000000000000	0.00000000000000	16.02559500000000	0.00000000000000	0.00000000000000	0.00000000000000	0.00000000000000	
0.41666000000000	-5.90048500000000	715.38545399999998	41.20440400000000	0.16624900000000	0.00000000000000	0.09893900000000	0.00000000000000	0.00000000000000	0.00000000000000	0.00000000000000	0.00000000000000	0.00000000000000	0.00000000000000	16.17424500000000	0.00000000000000	0.00000000000000	0.00000000000000	0.00000000000000	
0.41833100000000	-6.45834400000000	717.31269299999997	41.36687300000000	0.16529200000000	0.00000000000000	0.09904700000000	0.00000000000000	0.00000000000000	0.00000000000000	0.00000000000000	0.00000000000000	0.00000000000000	0.00000000000000	16.32458600000000	0.00000000000000	0.00000000000000	0.00000000000000	0.00000000000000	
0.41999500000000	-7.02281900000000	719.26826400000004	41.53227200000000	0.16432700000000	0.00000000000000	0.09915600000000	0.00000000000000	0.00000000000000	0.00000000000000	0.00000000000000	0.00000000000000	0.00000000000000	0.00000000000000	16.47645200000000	0.00000000000000	0.00000000000000	0.00000000000000	0.00000000000000	
0.42166000000000	-7.59367300000000	721.25127699999996	41.70060200000000	0.16335600000000	0.00000000000000	0.09926600000000	0.00000000000000	0.00000000000000	0.00000000000000	0.00000000000000	0.00000000000000	0.00000000000000	0.00000000000000	16.62967300000000	0.00000000000000	0.00000000000000	0.00000000000000	0.00000000000000	
0.42333100000000	-8.17063500000000	723.26091899999994	41.87188100000000	0.16238000000000	0.00000000000000	0.09937500000000	0.00000000000000	0.00000000000000	0.00000000000000	0.00000000000000	0.00000000000000	0.00000000000000	0.00000000000000	16.78407800000000	0.00000000000000	0.00000000000000	0.00000000000000	0.00000000000000	
0.42500000000000	-8.75340000000000	725.29645000000005	42.04614900000000	0.16139800000000	0.00000000000000	0.09948400000000	0.00000000000000	0.00000000000000	0.00000000000000	0.00000000000000	0.00000000000000	0.00000000000000	0.00000000000000	16.93949200000000	0.00000000000000	0.00000000000000	0.00000000000000	0.00000000000000	
0.42666000000000	-9.34163000000000	727.35719500000005	42.22346500000000	0.16041200000000	0.00000000000000	0.09959300000000	0.00000000000000	0.00000000000000	0.00000000000000	0.00000000000000	0.00000000000000	0.00000000000000	0.00000000000000	17.09573700000000	0.00000000000000	0.00000000000000	0.00000000000000	0.00000000000000	
0.42833100000000	-9.93495600000000	729.44253700000002	42.40390900000000	0.15942300000000	0.00000000000000	0.09970200000000	0.00000000000000	0.00000000000000	0.00000000000000	0.00000000000000	0.00000000000000	0.00000000000000	0.00000000000000	17.25263300000000	0.00000000000000	0.00000000000000	0.00000000000000	0.00000000000000	
0.42999800000000	-10.53298100000000	731.55190700000003	42.58758100000000	0.15843100000000	0.00000000000000	0.09981000000000	0.00000000000000	0.00000000000000	0.00000000000000	0.00000000000000	0.00000000000000	0.00000000000000	0.00000000000000	17.40999600000000	0.00000000000000	0.00000000000000	0.00000000000000	0.00000000000000	
0.43166700000000	-11.13527600000000	733.68478000000005	42.77459600000000	0.15743700000000	0.00000000000000	0.09991700000000	0.00000000000000	0.00000000000000	0.00000000000000	0.00000000000000	0.00000000000000	0.00000000000000	0.00000000000000	17.56764200000000	0.00000000000000	0.00000000000000	0.00000000000000	0.00000000000000	
0.43333400000000	-11.74139000000000	735.84066299999995	42.96509100000000	0.15644100000000	0.00000000000000	0.10002300000000	0.00000000000000	0.00000000000000	0.00000000000000	0.00000000000000	0.00000000000000	0.00000000000000	0.00000000000000	17.72538300000000	0.00000000000000	0.00000000000000	0.00000000000000	0.00000000000000	
0.43499600000000	-12.35084100000000	738.01908400000002	43.15921700000000	0.15544400000000	0.00000000000000	0.10012900000000	0.00000000000000	0.00000000000000	0.00000000000000	0.00000000000000	0.00000000000000	0.00000000000000	0.00000000000000	17.88303000000000	0.00000000000000	0.00000000000000	0.00000000000000	0.00000000000000	
0.43666100000000	-12.96312700000000	740.21958700000005	43.35714100000000	0.15444600000000	0.00000000000000	0.10023300000000	0.00000000000000	0.00000000000000	0.00000000000000	0.00000000000000	0.00000000000000	0.00000000000000	0.00000000000000	18.04039100000000	0.00000000000000	0.00000000000000	0.00000000000000	0.00000000000000	
0.43832700000000	-13.57772400000000	742.44171600000004	43.55904700000000	0.15344800000000	0.00000000000000	0.10033600000000	0.00000000000000	0.00000000000000	0.00000000000000	0.00000000000000	0.00000000000000	0.00000000000000	0.00000000000000	18.19727400000000	0.00000000000000	0.00000000000000	0.00000000000000	0.00000000000000	
0.43999700000000	-14.19408800000000	744.68501100000003	43.76512900000000	0.15245100000000	0.00000000000000	0.10043700000000	0.00000000000000	0.00000000000000	0.00000000000000	0.00000000000000	0.00000000000000	0.00000000000000	0.00000000000000	18.35348500000000	0.00000000000000	0.00000000000000	0.00000000000000	0.00000000000000	
0.44166200000000	-14.81165600000000	746.94899299999997	43.97559500000000	0.15145500000000	0.00000000000000	0.10053700000000	0.00000000000000	0.00000000000000	0.00000000000000	0.00000000000000	0.00000000000000	0.00000000000000	0.00000000000000	18.50882900000000	0.00000000000000	0.00000000000000	0.00000000000000	0.00000000000000	
